<?xml version="1.0" encoding="utf-8"?><svg xmlns="http://www.w3.org/2000/svg" xmlns:xlink="http://www.w3.org/1999/xlink" width="1536" height="707" preserveAspectRatio="xMidYMid" viewBox="0 0 1536 707" style="z-index:1;margin-right:-1.6px;display:block;background-color:rgb(0, 124, 197);animation-play-state:paused" ><g transform="translate(768,353.5) scale(1,1) translate(-768,-353.5)" style="transform:matrix(1, 0, 0, 1, 0, 0);animation-play-state:paused" ><defs style="animation-play-state:paused" ><filter id="blur-9qdcbcwumsm-1" x="-1" y="-1" width="3" height="3" style="animation-play-state:paused" ><feGaussianBlur stdDeviation="3" style="animation-play-state:paused" ></feGaussianBlur></filter>
<filter id="blur-9qdcbcwumsm-2" x="-1" y="-1" width="3" height="3" style="animation-play-state:paused" ><feGaussianBlur stdDeviation="1.5" style="animation-play-state:paused" ></feGaussianBlur></filter>
<filter id="blur-9qdcbcwumsm-3" x="-1" y="-1" width="3" height="3" style="animation-play-state:paused" ><feGaussianBlur stdDeviation="1" style="animation-play-state:paused" ></feGaussianBlur></filter></defs>
<circle cx="1187.303507883641" cy="0" transform="matrix(1,0,0,1,0,514.069580078125)" r="15.710531186874464" fill="#aabbcc" opacity="0.7200000000000001" style="transform:matrix(1, 0, 0, 1, 0, 514.07);opacity:0.72;animation-play-state:paused" ></circle>
<circle cx="1298.9952344261646" cy="0" transform="matrix(1,0,0,1,0,450.1830749511719)" r="10.160239632772578" fill="#aabbcc" opacity="0.63" style="transform:matrix(1, 0, 0, 1, 0, 450.183);opacity:0.63;animation-play-state:paused" ></circle>
<circle cx="1226.04230933301" cy="0" transform="matrix(1,0,0,1,0,478.52276611328125)" r="10.873367289848431" fill="#aabbcc" opacity="0.63" style="transform:matrix(1, 0, 0, 1, 0, 478.523);opacity:0.63;animation-play-state:paused" ></circle>
<circle cx="687.5544047921042" cy="0" transform="matrix(1,0,0,1,0,442.9716796875)" r="11.730450668511187" fill="#bbddff" opacity="0.63" style="transform:matrix(1, 0, 0, 1, 0, 442.972);opacity:0.63;animation-play-state:paused" ></circle>
<circle cx="335.5129783498668" cy="0" transform="matrix(1,0,0,1,0,540.542236328125)" r="11.057082339613176" fill="#ddeeff" opacity="0.63" style="transform:matrix(1, 0, 0, 1, 0, 540.542);opacity:0.63;animation-play-state:paused" ></circle>
<circle cx="865.5736321827644" cy="0" transform="matrix(1,0,0,1,0,13.60235595703125)" r="5.54523315357098" fill="#ddeeff" opacity="0.36000000000000004" style="transform:matrix(1, 0, 0, 1, 0, 13.6024);opacity:0.36;animation-play-state:paused" ></circle>
<circle cx="707.2364849774003" cy="0" transform="matrix(1,0,0,1,0,465.78900146484375)" r="7.506881545548703" fill="#bbddff" opacity="0.36000000000000004" style="transform:matrix(1, 0, 0, 1, 0, 465.789);opacity:0.36;animation-play-state:paused" ></circle>
<circle cx="374.6966707984535" cy="0" transform="matrix(1,0,0,1,0,666.4533081054688)" r="4.481970876349241" fill="#bbddff" opacity="0.36000000000000004" style="transform:matrix(1, 0, 0, 1, 0, 666.453);opacity:0.36;animation-play-state:paused" ></circle>
<circle cx="1486.905034495172" cy="0" transform="matrix(1,0,0,1,0,167.95819091796875)" r="14.326260472005707" fill="#aabbcc" opacity="0.7200000000000001" style="transform:matrix(1, 0, 0, 1, 0, 167.958);opacity:0.72;animation-play-state:paused" ></circle>
<circle cx="581.5075557478654" cy="0" transform="matrix(1,0,0,1,0,690.5259399414062)" r="10.996526844944798" fill="#bbddff" opacity="0.63" style="transform:matrix(1, 0, 0, 1, 0, 690.526);opacity:0.63;animation-play-state:paused" ></circle>
<circle cx="1000.3490364512966" cy="0" transform="matrix(1,0,0,1,0,338.8057861328125)" r="14.31176609362724" fill="#ddeeff" opacity="0.7200000000000001" style="transform:matrix(1, 0, 0, 1, 0, 338.806);opacity:0.72;animation-play-state:paused" ></circle>
<circle cx="498.9876585210633" cy="0" transform="matrix(1,0,0,1,0,308.6519470214844)" r="7.9315455729246285" fill="#bbddff" opacity="0.36000000000000004" style="transform:matrix(1, 0, 0, 1, 0, 308.652);opacity:0.36;animation-play-state:paused" ></circle>
<circle cx="714.5958341174282" cy="0" transform="matrix(1,0,0,1,0,80.10333251953125)" r="9.09533580343934" fill="#ddeeff" opacity="0.63" style="transform:matrix(1, 0, 0, 1, 0, 80.1033);opacity:0.63;animation-play-state:paused" ></circle>
<circle cx="953.1466927993891" cy="0" transform="matrix(1,0,0,1,0,146.419189453125)" r="13.519609493631169" fill="#bbddff" opacity="0.7200000000000001" style="transform:matrix(1, 0, 0, 1, 0, 146.419);opacity:0.72;animation-play-state:paused" ></circle>
<circle cx="544.47735470237" cy="0" transform="matrix(1,0,0,1,0,240.84930419921875)" r="4.863683383403799" fill="#aabbcc" opacity="0.36000000000000004" style="transform:matrix(1, 0, 0, 1, 0, 240.849);opacity:0.36;animation-play-state:paused" ></circle></g></svg>