<svg id="visual" viewBox="0 0 900 600" width="900" height="600" xmlns="http://www.w3.org/2000/svg" xmlns:xlink="http://www.w3.org/1999/xlink" version="1.1"><g stroke-width="1" stroke-linejoin="bevel"><path d="M436 317L423 360L469 384Z" fill="#200530" stroke="#200530"></path><path d="M469 384L537 275L436 317Z" fill="#19041f" stroke="#19041f"></path><path d="M469 384L583 417L537 275Z" fill="#19041f" stroke="#19041f"></path><path d="M305 329L326 406L423 360Z" fill="#1c0524" stroke="#1c0524"></path><path d="M423 360L393 486L469 384Z" fill="#230439" stroke="#230439"></path><path d="M469 384L505 522L583 417Z" fill="#1d0527" stroke="#1d0527"></path><path d="M326 406L393 486L423 360Z" fill="#1a0422" stroke="#1a0422"></path><path d="M302 203L305 329L436 317Z" fill="#210533" stroke="#210533"></path><path d="M436 317L305 329L423 360Z" fill="#1a0422" stroke="#1a0422"></path><path d="M583 417L625 287L537 275Z" fill="#200530" stroke="#200530"></path><path d="M393 486L505 522L469 384Z" fill="#1f052d" stroke="#1f052d"></path><path d="M536 173L390 175L537 275Z" fill="#210533" stroke="#210533"></path><path d="M537 275L390 175L436 317Z" fill="#1c0524" stroke="#1c0524"></path><path d="M625 287L568 192L537 275Z" fill="#1d0527" stroke="#1d0527"></path><path d="M568 192L536 173L537 275Z" fill="#230439" stroke="#230439"></path><path d="M390 175L302 203L436 317Z" fill="#1c0524" stroke="#1c0524"></path><path d="M305 329L238 406L326 406Z" fill="#19041f" stroke="#19041f"></path><path d="M326 406L261 463L393 486Z" fill="#1f052d" stroke="#1f052d"></path><path d="M230 339L238 406L305 329Z" fill="#19041f" stroke="#19041f"></path><path d="M238 228L230 339L305 329Z" fill="#1f052d" stroke="#1f052d"></path><path d="M238 406L261 463L326 406Z" fill="#1d0527" stroke="#1d0527"></path><path d="M393 486L438 600L505 522Z" fill="#1c0524" stroke="#1c0524"></path><path d="M625 287L673 231L568 192Z" fill="#1e052a" stroke="#1e052a"></path><path d="M604 90L478 95L536 173Z" fill="#210533" stroke="#210533"></path><path d="M734 317L673 231L625 287Z" fill="#1c0524" stroke="#1c0524"></path><path d="M505 522L629 527L583 417Z" fill="#220536" stroke="#220536"></path><path d="M583 417L713 416L625 287Z" fill="#200530" stroke="#200530"></path><path d="M302 203L238 228L305 329Z" fill="#200530" stroke="#200530"></path><path d="M604 90L536 173L568 192Z" fill="#19041f" stroke="#19041f"></path><path d="M536 173L478 95L390 175Z" fill="#1d0527" stroke="#1d0527"></path><path d="M390 175L314 62L302 203Z" fill="#230439" stroke="#230439"></path><path d="M302 203L189 86L238 228Z" fill="#200530" stroke="#200530"></path><path d="M337 600L438 600L393 486Z" fill="#230439" stroke="#230439"></path><path d="M505 522L583 600L629 527Z" fill="#1e052a" stroke="#1e052a"></path><path d="M438 600L522 600L505 522Z" fill="#1d0527" stroke="#1d0527"></path><path d="M629 527L713 416L583 417Z" fill="#1c0524" stroke="#1c0524"></path><path d="M478 95L402 89L390 175Z" fill="#19041f" stroke="#19041f"></path><path d="M713 416L734 317L625 287Z" fill="#200530" stroke="#200530"></path><path d="M261 463L337 600L393 486Z" fill="#1a0422" stroke="#1a0422"></path><path d="M522 600L583 600L505 522Z" fill="#1e052a" stroke="#1e052a"></path><path d="M629 527L732 524L713 416Z" fill="#200530" stroke="#200530"></path><path d="M238 406L191 464L261 463Z" fill="#230439" stroke="#230439"></path><path d="M261 463L169 600L337 600Z" fill="#1d0527" stroke="#1d0527"></path><path d="M61 395L191 464L238 406Z" fill="#230439" stroke="#230439"></path><path d="M61 395L238 406L230 339Z" fill="#1d0527" stroke="#1d0527"></path><path d="M680 104L568 192L673 231Z" fill="#200530" stroke="#200530"></path><path d="M680 104L604 90L568 192Z" fill="#200530" stroke="#200530"></path><path d="M391 0L314 62L402 89Z" fill="#230439" stroke="#230439"></path><path d="M460 0L402 89L478 95Z" fill="#19041f" stroke="#19041f"></path><path d="M402 89L314 62L390 175Z" fill="#1f052d" stroke="#1f052d"></path><path d="M695 600L732 524L629 527Z" fill="#1e052a" stroke="#1e052a"></path><path d="M810 436L795 272L734 317Z" fill="#1a0422" stroke="#1a0422"></path><path d="M805 163L680 104L673 231Z" fill="#1a0422" stroke="#1a0422"></path><path d="M810 436L734 317L713 416Z" fill="#1e052a" stroke="#1e052a"></path><path d="M734 317L795 272L673 231Z" fill="#1f052d" stroke="#1f052d"></path><path d="M583 600L695 600L629 527Z" fill="#1c0524" stroke="#1c0524"></path><path d="M560 0L478 95L604 90Z" fill="#19041f" stroke="#19041f"></path><path d="M560 0L460 0L478 95Z" fill="#230439" stroke="#230439"></path><path d="M460 0L391 0L402 89Z" fill="#24043c" stroke="#24043c"></path><path d="M679 0L560 0L604 90Z" fill="#1e052a" stroke="#1e052a"></path><path d="M732 524L810 436L713 416Z" fill="#1f052d" stroke="#1f052d"></path><path d="M772 532L810 436L732 524Z" fill="#220536" stroke="#220536"></path><path d="M768 600L772 532L732 524Z" fill="#210533" stroke="#210533"></path><path d="M189 86L135 161L238 228Z" fill="#200530" stroke="#200530"></path><path d="M238 228L77 278L230 339Z" fill="#19041f" stroke="#19041f"></path><path d="M189 86L302 203L314 62Z" fill="#230439" stroke="#230439"></path><path d="M234 0L189 86L314 62Z" fill="#1c0524" stroke="#1c0524"></path><path d="M191 464L169 600L261 463Z" fill="#200530" stroke="#200530"></path><path d="M63 465L169 600L191 464Z" fill="#220536" stroke="#220536"></path><path d="M135 161L77 278L238 228Z" fill="#210533" stroke="#210533"></path><path d="M391 0L279 0L314 62Z" fill="#1c0524" stroke="#1c0524"></path><path d="M795 272L805 163L673 231Z" fill="#1c0524" stroke="#1c0524"></path><path d="M680 104L679 0L604 90Z" fill="#1f052d" stroke="#1f052d"></path><path d="M900 216L805 163L795 272Z" fill="#200530" stroke="#200530"></path><path d="M189 86L125 139L135 161Z" fill="#1c0524" stroke="#1c0524"></path><path d="M135 161L0 215L77 278Z" fill="#1a0422" stroke="#1a0422"></path><path d="M125 0L125 139L189 86Z" fill="#1f052d" stroke="#1f052d"></path><path d="M695 600L768 600L732 524Z" fill="#1a0422" stroke="#1a0422"></path><path d="M900 526L900 371L810 436Z" fill="#210533" stroke="#210533"></path><path d="M77 278L61 395L230 339Z" fill="#19041f" stroke="#19041f"></path><path d="M770 63L679 0L680 104Z" fill="#1a0422" stroke="#1a0422"></path><path d="M61 395L63 465L191 464Z" fill="#200530" stroke="#200530"></path><path d="M279 0L234 0L314 62Z" fill="#24043c" stroke="#24043c"></path><path d="M805 163L770 63L680 104Z" fill="#19041f" stroke="#19041f"></path><path d="M900 526L810 436L772 532Z" fill="#1f052d" stroke="#1f052d"></path><path d="M810 436L900 371L795 272Z" fill="#19041f" stroke="#19041f"></path><path d="M900 70L820 0L770 63Z" fill="#200530" stroke="#200530"></path><path d="M900 371L900 286L795 272Z" fill="#1f052d" stroke="#1f052d"></path><path d="M63 465L78 600L169 600Z" fill="#230439" stroke="#230439"></path><path d="M900 286L900 216L795 272Z" fill="#1c0524" stroke="#1c0524"></path><path d="M61 395L0 406L63 465Z" fill="#1d0527" stroke="#1d0527"></path><path d="M63 465L0 600L78 600Z" fill="#24043c" stroke="#24043c"></path><path d="M0 274L0 406L61 395Z" fill="#19041f" stroke="#19041f"></path><path d="M0 274L61 395L77 278Z" fill="#24043c" stroke="#24043c"></path><path d="M0 215L135 161L125 139Z" fill="#220536" stroke="#220536"></path><path d="M0 215L0 274L77 278Z" fill="#200530" stroke="#200530"></path><path d="M0 406L0 463L63 465Z" fill="#19041f" stroke="#19041f"></path><path d="M900 600L900 526L772 532Z" fill="#220536" stroke="#220536"></path><path d="M0 63L0 215L125 139Z" fill="#1a0422" stroke="#1a0422"></path><path d="M234 0L125 0L189 86Z" fill="#220536" stroke="#220536"></path><path d="M900 70L770 63L805 163Z" fill="#1f052d" stroke="#1f052d"></path><path d="M770 63L820 0L679 0Z" fill="#24043c" stroke="#24043c"></path><path d="M768 600L900 600L772 532Z" fill="#200530" stroke="#200530"></path><path d="M900 216L900 70L805 163Z" fill="#200530" stroke="#200530"></path><path d="M0 463L0 600L63 465Z" fill="#210533" stroke="#210533"></path><path d="M125 0L0 63L125 139Z" fill="#19041f" stroke="#19041f"></path><path d="M900 70L900 0L820 0Z" fill="#1e052a" stroke="#1e052a"></path><path d="M125 0L0 0L0 63Z" fill="#220536" stroke="#220536"></path></g></svg>